<?xml version="1.0" encoding="UTF-8"?>
<svg width="388px" height="495px" viewBox="0 0 388 495" version="1.1" xmlns="http://www.w3.org/2000/svg" xmlns:xlink="http://www.w3.org/1999/xlink">
    <title>Stemma Comune</title>
    <g id="Page-1" stroke="none" stroke-width="1" fill="none" fill-rule="evenodd">
        <g id="Stemma-Comune" transform="translate(0.000000, 0.978730)" fill-rule="nonzero">
            <rect id="Rectangle" fill="#1B28CE" x="102.5" y="129.79127" width="183.5" height="235" rx="12"></rect>
            <path d="M194.24,377.79127 C194.24,377.79127 193.49,364.79127 174.49,364.79127 L214.24,364.79127 C195.24,364.79127 194.49,377.79127 194.49,377.79127" id="Path" fill="#1B28CE"></path>
            <path d="M245.64,187.29127 C245.64,187.29127 253.81,185.62127 251.48,191.79127 C249.15,197.96127 214.64,306.79127 214.64,306.79127 C214.64,306.79127 213.64,311.79127 206.89,311.79127 L180.75,311.79127 C174,311.79127 173,306.79127 173,306.79127 C173,306.79127 138.5,197.95127 136.17,191.79127 C133.84,185.63127 142,187.29127 142,187.29127 L165.67,187.08127 C165.67,187.08127 169.33,185.79127 170,191.62127 C170.67,197.45127 194,279.29127 193.82,280.45127 C193.82,280.45127 194.82,283.77127 195.58,280.45127 C195.86,279.31127 218.74,197.45127 219.4,191.62127 C220.06,185.79127 223.74,187.08127 223.74,187.08127 L245.64,187.29127 Z" id="Path" fill="#E7E8E9"></path>
            <path d="M124.98,95.6112704 C124.48,76.6112704 123.33,76.4512704 123.33,76.4512704 C121,74.6212704 121.5,70.4512704 121.5,70.4512704 C120.5,65.7912704 110.5,56.7912704 110.5,56.7912704 C105.83,53.7912704 104.5,32.4512704 104.5,32.4512704 C103.83,29.7912704 102.5,29.1212704 102.5,29.1212704 C100.67,27.1212704 100,20.1212704 100,20.1212704 C100,20.1212704 106.25,19.7912704 107.75,21.2912704 C107.75,21.2912704 111.5,14.2912704 115.5,13.7912704 C115.5,13.7912704 117.5,20.2912704 116.5,23.0412704 C116.5,23.0412704 115.5,26.5412704 118.5,36.0412704 L125.17,34.2912704 C125.17,34.2912704 124.5,22.7912704 122.75,21.5412704 C122.75,21.5412704 119.5,19.7912704 120,12.2912704 C120,12.2912704 126,11.0412704 128.75,14.5412704 C128.75,14.5412704 132,8.29127041 136.5,9.04127041 C136.5,9.04127041 138.25,15.0412704 136.5,17.7912704 C136.5,17.7912704 136.25,20.7912704 138.5,30.5412704 L145,28.7912704 C145,28.7912704 144,16.7912704 143,15.7912704 C143,15.7912704 140,13.0412704 140.5,7.29127041 C140.5,7.29127041 147.75,6.54127041 149.75,9.04127041 C149.75,9.04127041 154,3.29127041 158.5,3.29127041 C158.5,3.29127041 160.25,11.4112704 157,14.2912704 C157,14.2912704 157.25,17.5412704 158,24.5412704 L165.24,23.2912704 C165.24,23.2912704 164.74,13.0412704 163.49,11.2912704 C163.49,11.2912704 161.24,9.29127041 162.49,1.79127041 C162.49,1.79127041 169.62,2.16127041 171.87,5.41127041 C171.87,5.41127041 175.99,-0.708729589 179.99,0.291270411 C179.99,0.291270411 182.49,4.04127041 179.99,10.2912704 L179.99,21.5212704 L186.24,21.5212704 C186.24,21.5212704 186.74,11.2712704 186.24,10.2712704 C185.74,9.27127041 182.99,7.80127041 184.49,0.161270411 C188.353875,-0.536496917 192.272307,1.06596617 194.54,4.27127041 C196.783087,1.6539957 200.043348,0.127683817 203.49,0.0812704108 C203.49,0.0812704108 205.74,6.27127041 202.24,10.0212704 L202.24,21.0212704 L209.04,21.4412704 L209.04,10.2112704 C206.54,3.96127041 209.04,0.211270411 209.04,0.211270411 C213.04,-0.788729589 217.24,5.41127041 217.24,5.41127041 C219.62,2.04127041 226.54,1.71127041 226.54,1.71127041 C227.79,9.21127041 225.54,11.2112704 225.54,11.2112704 C224.29,12.9612704 223.79,23.2112704 223.79,23.2112704 L231.04,24.4612704 C231.79,17.4612704 232.04,14.2112704 232.04,14.2112704 C229.12,11.2912704 230.54,3.21127041 230.54,3.21127041 C235.04,3.21127041 239.29,8.96127041 239.29,8.96127041 C241.29,6.46127041 248.54,7.21127041 248.54,7.21127041 C249.04,12.9612704 246.04,15.7112704 246.04,15.7112704 C245.04,16.7112704 244.04,28.7112704 244.04,28.7112704 L250.54,30.4612704 C252.79,20.7112704 252.54,17.7112704 252.54,17.7112704 C250.79,14.9612704 252.54,8.96127041 252.54,8.96127041 C257.04,8.21127041 260.29,14.4612704 260.29,14.4612704 C263.04,10.9612704 269.04,12.2112704 269.04,12.2112704 C269.54,19.7112704 266.29,21.4612704 266.29,21.4612704 C264.54,22.7112704 263.87,34.2112704 263.87,34.2112704 L270.54,35.9612704 C273.54,26.4612704 272.54,22.9612704 272.54,22.9612704 C271.54,20.2112704 273.54,13.7112704 273.54,13.7112704 C277.54,14.2112704 281.29,21.2112704 281.29,21.2112704 C282.79,19.7112704 289.04,20.0412704 289.04,20.0412704 C289.04,20.0412704 288.37,27.0412704 286.54,29.0412704 C286.54,29.0412704 285.21,29.7112704 284.54,32.3712704 C284.54,32.3712704 283.21,53.7112704 278.54,56.7112704 C278.54,56.7112704 268.54,65.7112704 267.54,70.3712704 C267.54,70.3712704 268.04,74.5412704 265.71,76.3712704 C265.71,76.3712704 264.88,76.6112704 264.38,95.6112704" id="Path" fill="#E7E8E9"></path>
            <path d="M194.5,63.6012704 C190.5,63.3512704 188.63,67.5412704 188.63,67.5412704 C186.75,70.1612704 187.63,80.2612704 187.63,80.2612704 C187.63,80.2612704 198.42,83.0812704 201.38,80.2612704 C201.38,80.2612704 202.25,70.1612704 200.38,67.5412704 C200.38,67.5412704 198.5,63.3512704 194.5,63.6012704" id="Path" fill="#BE3641"></path>
            <path d="M254.91,88.7612704 C254.91,88.7612704 254.23,81.7012704 256.11,79.0812704 C256.11,79.0812704 257.98,74.8912704 261.98,75.1412704 C263.338892,75.2061082 264.622285,75.7852439 265.57,76.7612704 C265.57,76.7612704 264.12,89.2612704 264.39,95.6112704 L254.91,88.7612704 Z" id="Path" fill="#BE3641"></path>
            <path d="M127.06,74.6012704 C131.06,74.3512704 132.94,78.5412704 132.94,78.5412704 C134.81,81.1612704 134.35,89.8912704 134.35,89.8912704 L124.98,95.6112704 C124.98,95.6112704 124.43,77.8112704 123.33,76.4512704 C122.23,75.0912704 127.06,74.6012704 127.06,74.6012704 Z" id="Path" fill="#BE3641"></path>
            <ellipse id="Oval" fill="#BEC0C2" cx="194.5" cy="97.3712704" rx="69.89" ry="17.11"></ellipse>
            <ellipse id="Oval" fill="#BE3641" cx="194.55" cy="98.0312704" rx="63.89" ry="11.23"></ellipse>
            <path d="M194.5,38.1212704 C185.67,38.6212704 187.42,53.7712704 187.42,53.7712704 C187.42,53.7712704 201.37,56.4112704 201.51,53.7712704 C201.51,53.7712704 203.26,38.6212704 194.43,38.1212704" id="Path" fill="#AAACAE"></path>
            <path d="M174.64,38.1212704 C165.81,38.6212704 168.29,55.1912704 168.29,55.1912704 C168.29,55.1912704 181.51,56.5812704 181.65,53.7712704 C181.65,53.7712704 183.41,38.6212704 174.57,38.1212704" id="Path" fill="#AAACAE"></path>
            <path d="M155.36,41.0412704 C146.53,41.5412704 151.01,58.5512704 151.01,58.5512704 C151.01,58.5512704 163.63,57.9912704 163.52,55.9012704 C163.52,55.9012704 163.52,41.0412704 155.36,41.0412704" id="Path" fill="#AAACAE"></path>
            <path d="M137.52,44.5912704 C128.69,45.0912704 136.03,63.3712704 136.03,63.3712704 C136.03,63.3712704 146.13,63.5312704 146.98,59.6612704 C146.98,59.6612704 144.63,44.0412704 137.52,44.5912704" id="Path" fill="#AAACAE"></path>
            <path d="M121.54,50.7312704 C112.7,51.2312704 123.33,69.3412704 123.33,69.3412704 C123.33,69.3412704 132.51,68.6512704 131.52,65.2512704 C131.52,65.2512704 129.25,53.7712704 121.52,50.7312704" id="Path" fill="#AAACAE"></path>
            <path d="M213.75,39.6212704 C204.92,40.1212704 206.67,55.2712704 206.67,55.2712704 C206.67,55.2712704 219.85,58.4712704 220.04,56.6912704 C220.04,56.6912704 222.52,40.1212704 213.68,39.6212704" id="Path" fill="#AAACAE"></path>
            <path d="M232.97,42.5212704 C224.81,42.5212704 224.81,57.3912704 224.81,57.3912704 C224.81,57.3912704 236.81,62.3912704 237.32,60.0312704 C237.32,60.0312704 241.8,43.0312704 232.97,42.5212704" id="Path" fill="#AAACAE"></path>
            <path d="M250.81,46.1012704 C243.7,45.5412704 241.34,61.1612704 241.34,61.1612704 C241.34,61.1612704 251.34,67.4512704 252.29,64.8712704 C252.29,64.8712704 259.64,46.6012704 250.81,46.1012704" id="Path" fill="#AAACAE"></path>
            <path d="M266.86,52.2312704 C259.08,55.2312704 256.8,66.7512704 256.8,66.7512704 C256.8,66.7512704 264.36,72.0812704 265.8,69.3412704 C265.8,69.3412704 275.6,52.7312704 266.8,52.2312704" id="Path" fill="#AAACAE"></path>
            <path d="M265.72,76.3712704 C182.78,39.8012704 123.33,76.4512704 123.33,76.4512704 C123.33,76.4512704 120.75,73.5512704 121.5,70.4512704 C121.5,70.4512704 177.6,32.9612704 267.55,70.3712704 C267.55,70.3712704 267.1,76.9912704 265.72,76.3712704 Z" id="Path" fill="#BEC0C2"></path>
            <path d="M50.33,218.12127 C50.33,218.12127 42.77,193.12127 74.88,181.12127 C74.88,181.12127 76,184.12127 74.33,190.12127" id="Path" fill="#2B9652"></path>
            <path d="M50.33,218.12127 C50.33,218.12127 48.67,200.45127 74.33,190.12127 C74.33,190.12127 80.67,208.12127 50.33,218.12127 Z" id="Path" fill="#4BB559"></path>
            <path d="M42.32,238.79127 C42.32,238.79127 23.67,223.79127 34.32,199.62127 C34.32,199.62127 44.18,207.62127 45.92,224.22127" id="Path" fill="#2B9652"></path>
            <path d="M43.6098691,242.02127 C43.6098691,242.02127 43.33,228.45127 68.67,218.12127 C68.67,218.12127 72.56,241.25127 43.6098691,242.02127 Z" id="Path" fill="#4BB559"></path>
            <path d="M37.59,276.81127 C37.59,276.81127 40.14,248.92127 62.4,242.02127 C62.4,242.02127 62.7,254.02127 58.35,259.41127" id="Path" fill="#2B9652"></path>
            <path d="M37.59,276.81127 C37.59,276.81127 49.33,256.81127 71.33,257.12127 C71.33,257.12127 65.84,278.16127 37.59,276.81127 Z" id="Path" fill="#4BB559"></path>
            <path d="M34.45,266.99127 C23.4003701,255.403871 18.7465408,239.128552 22,223.45127 C22,223.45127 37.84,236.77127 37.59,250.95127" id="Path" fill="#4BB559"></path>
            <path d="M15.07,267.04127 C11.2042512,266.17822 7.19574879,266.17822 3.33,267.04127 C9.33,289.25127 32.27,290.84127 32.27,290.84127 L32.27,284.62127" id="Path" fill="#2B9652"></path>
            <path d="M32.24,286.79127 C32.24,286.79127 11.7,279.12127 12.03,247.29127 C12.03,247.29127 29.95,257.88127 33.43,274.83127" id="Path" fill="#4BB559"></path>
            <path d="M36.91,296.11127 C36.91,296.11127 43.33,276.16127 66.67,276.81127 C66.67,276.81127 66.48,296.81127 36.91,300.81127" id="Path" fill="#4BB559"></path>
            <path d="M40.68,328.64127 C40.68,328.64127 37.68,313.79127 58.68,296.12127 C58.68,296.12127 67.48,313.12127 41.2,339.79127" id="Path" fill="#4BB559"></path>
            <path d="M35.29,327.06127 C35.29,327.06127 3.57,315.06127 5,290.79127 C5,290.79127 24.82,295.41127 33.24,314.09127" id="Path" fill="#2B9652"></path>
            <path d="M42.89,352.22127 C42.89,352.22127 16.67,357.12127 0,333.45127 C0,333.45127 3.46,331.72127 10.4,331.76127" id="Path" fill="#2B9652"></path>
            <path d="M42.89,352.22127 C42.89,352.22127 10.22,348.22127 7.67,321.79127 C7.67,321.79127 33.45,324.33127 42.89,352.22127 Z" id="Path" fill="#4BB559"></path>
            <path d="M66.67,333.41127 C68,327.03127 66.67,315.79127 66.67,315.79127 C40.33,338.12127 47.3,350.13127 47.3,350.13127 L49.05,358.13127 L52.55,356.13127" id="Path" fill="#2B9652"></path>
            <path d="M50.79,358.16127 C50.79,358.16127 49,335.45127 80.33,328.45127 C80.33,328.45127 88.24,341.86127 50.79,358.16127 Z" id="Path" fill="#4BB559"></path>
            <path d="M52.55,371.29127 C52.55,371.29127 23.33,376.66127 10.33,352.22127 C10.33,352.22127 33.64,353.27127 48.16,363.53127" id="Path" fill="#2B9652"></path>
            <path d="M69.42,387.04127 C69.42,387.04127 55,364.45127 78,346.45127 C78,346.45127 87,361.69127 72.35,390.45127" id="Path" fill="#4BB559"></path>
            <path d="M33.3,386.34127 C33.3,386.34127 26.3,387.04127 25.3,389.04127 C24.3,391.04127 46.3,408.19127 72.87,397.04127 L69.54,393.52127" id="Path" fill="#2B9652"></path>
            <path d="M71.33,395.44127 C71.33,395.44127 40.89,400.44127 25.33,377.79127 C25.33,377.79127 46.69,371.47127 66.72,390.41127" id="Path" fill="#4BB559"></path>
            <path d="M92.68,399.97127 C92.68,399.97127 108,387.12127 101,366.45127 C101,366.45127 97,367.86127 92.68,375.45127" id="Path" fill="#2B9652"></path>
            <path d="M87.85,405.30127 C87.85,405.30127 73.2,387.22127 87.85,362.01127 C87.85,362.01127 99.37,380.75127 90.68,407.60127" id="Path" fill="#4BB559"></path>
            <path d="M78.61,402.52127 C78.61,402.52127 53.39,398.16127 40.53,404.52127 C40.53,404.52127 55.93,427.43127 87.63,410.15127" id="Path" fill="#2B9652"></path>
            <path d="M111.63,421.86127 C111.63,421.86127 97.33,413.79127 105.33,381.45127 C105.33,381.45127 121.58,392.25127 119.46,426.18127" id="Path" fill="#2B9652"></path>
            <path d="M69.3,431.35127 C67.6744591,432.645182 66.216552,434.136681 64.96,435.79127 C64.96,435.79127 96.6,445.05127 115.13,427.92127 L109,424.79127" id="Path" fill="#2B9652"></path>
            <path d="M104.53,421.80127 C104.53,421.80127 82.43,415.92127 61.05,426.18127 C61.05,426.18127 77.22,443.58127 111.28,426.18127" id="Path" fill="#4BB559"></path>
            <path d="M135.75,438.29127 C135.75,438.29127 109.32,429.12127 86.16,443.45127 C86.16,443.45127 105.29,462.07127 139.81,439.45127" id="Path" fill="#4BB559"></path>
            <path d="M146.78,440.07127 C146.78,440.07127 120.17,420.79127 117.33,392.79127 C117.33,392.79127 147.41,400.09127 153.7,440.27127" id="Path" fill="#4BB559"></path>
            <circle id="Oval" fill="#F4B519" cx="47.05" cy="216.52127" r="4.73"></circle>
            <circle id="Oval" fill="#F4B519" cx="52.55" cy="221.25127" r="4.73"></circle>
            <circle id="Oval" fill="#F4B519" cx="43.61" cy="249.57127" r="4.73"></circle>
            <circle id="Oval" fill="#F4B519" cx="30.01" cy="271.13127" r="4.73"></circle>
            <circle id="Oval" fill="#F4B519" cx="38.88" cy="286.05127" r="4.73"></circle>
            <circle id="Oval" fill="#F4B519" cx="41.19" cy="307.05127" r="4.73"></circle>
            <circle id="Oval" fill="#F4B519" cx="29.3" cy="296.12127" r="4.73"></circle>
            <circle id="Oval" fill="#F4B519" cx="34.14" cy="332.96127" r="4.73"></circle>
            <circle id="Oval" fill="#F4B519" cx="56.86" cy="366.45127" r="4.73"></circle>
            <circle id="Oval" fill="#F4B519" cx="52.13" cy="376.78127" r="4.73"></circle>
            <circle id="Oval" fill="#F4B519" cx="76.9" cy="390.41127" r="4.73"></circle>
            <circle id="Oval" fill="#F4B519" cx="97.76" cy="408.77127" r="4.73"></circle>
            <circle id="Oval" fill="#F4B519" cx="89.19" cy="415.39127" r="4.73"></circle>
            <circle id="Oval" fill="#F4B519" cx="127.98" cy="427.92127" r="4.73"></circle>
            <circle id="Oval" fill="#F4B519" cx="36.91" cy="242.22127" r="4.73"></circle>
            <path d="M331.13,213.42127 C331.13,213.42127 314.33,204.42127 318,203.29127 C318,203.29127 320.38,202.45127 317.44,200.12127 C317.44,200.12127 312.33,195.62127 315.17,194.79127 C315.17,194.79127 317.5,194.29127 315.33,192.12127 C315.33,192.12127 310.12,187.95127 314.33,187.79127 C314.33,187.79127 315.85,187.79127 315.19,184.95127 C315.19,184.95127 314.34,180.12127 318.68,182.12127" id="Path" fill="#2B9652"></path>
            <path d="M340.54,223.52127 C340.54,223.52127 322,208.45127 325.33,203.45127 C325.715574,203.016591 325.89305,202.435718 325.816257,201.859769 C325.739464,201.283821 325.415994,200.769741 324.93,200.45127 C324.93,200.45127 317.67,197.79127 321,194.79127 C321,194.79127 322.42,194.12127 320.13,191.95127 C320.13,191.95127 315.13,187.62127 318,185.95127 C318,185.95127 319.67,185.95127 318.83,183.95127 C318.83,183.95127 317.33,177.29127 323,182.12127 C323,182.12127 324.17,183.62127 325,182.29127 C325,182.29127 326.83,178.95127 328.83,184.62127 C328.83,184.62127 330,192.29127 331.5,191.79127 C331.5,191.79127 335.17,188.29127 335.33,192.62127 C335.33,192.62127 334.83,199.79127 336.17,200.45127 C336.17,200.45127 339,197.62127 339.17,204.95127 C339.17,204.95127 339.91,209.76127 340.54,223.52127 Z" id="Path" fill="#4BB559"></path>
            <path d="M349.1,244.52127 C349.1,244.52127 359.73,226.45127 356.1,225.95127 C356.1,225.95127 351.98,225.60127 354.31,221.52127 C354.31,221.52127 360.38,213.79127 356.85,214.29127 C356.85,214.29127 352.98,215.39127 354.31,211.42127 C354.31,211.42127 359.88,201.79127 356.1,202.29127 C356.1,202.29127 350.1,204.12127 349.98,200.79127 C349.98,200.79127 349.81,195.45127 346.65,196.62127 C346.65,196.62127 344.98,196.12127 344.98,202.95127 C344.98,202.95127 345.65,205.29127 342.98,205.12127 C342.98,205.12127 340.65,205.29127 341.98,208.62127 C341.98,208.62127 345.31,215.29127 343.98,215.62127 C343.98,215.62127 340.81,214.95127 342.31,218.12127 C342.31,218.12127 345.48,223.62127 345.31,226.12127 C345.31,226.12127 343.75,227.74127 343.15,226.18127" id="Path" fill="#2B9652"></path>
            <path d="M353.72,266.00127 C353.72,266.00127 352.83,255.12127 355.17,255.95127 C355.17,255.95127 356.5,258.12127 357,256.79127 C357,256.79127 354.67,239.45127 358.83,242.79127 C358.83,242.79127 361.33,244.79127 361.5,239.95127 C361.5,239.95127 360.33,228.79127 363.5,229.95127 C363.5,229.95127 365.17,232.12127 366,229.87127 C366,229.87127 367.67,225.45127 369.67,229.87127 C369.67,229.87127 370,232.45127 371.33,232.95127 C371.33,232.95127 375.5,231.79127 374,235.95127 C374,235.95127 369.17,244.41127 371.83,244.52127 C371.83,244.52127 375.5,245.29127 371.83,249.37127 C371.83,249.37127 367,254.45127 369.83,254.29127 C369.83,254.29127 374.83,253.12127 370.33,257.45127 C370.33,257.45127 363.33,262.79127 365.67,262.95127 C365.67,262.95127 368.67,262.04127 365.33,266.00127 C365.33,266.00127 356.71,276.66127 355.27,278.14127" id="Path" fill="#4BB559"></path>
            <path d="M371.02,323.32127 L363.68,323.32127 L353.88,335.22127 L345.88,342.79127 L345.88,347.52127 L346.73,348.93127 C348.62,347.93127 357.17,347.27127 357.17,347.27127 C359.33,347.43127 358.5,344.74127 358.5,344.74127 C358,343.38127 365.33,344.74127 365.33,344.74127 C368.5,344.21127 366.67,341.60127 366.67,341.60127 C366.17,340.27127 374.33,340.60127 374.33,340.60127 C375.99,340.60127 374.33,337.93127 374.33,337.93127 C374.15,336.77127 382.17,336.93127 382.17,336.93127 C386,336.10127 383,334.10127 383,334.10127 C381.17,332.77127 384.17,331.10127 384.17,331.10127 C388.33,330.10127 387.67,327.01127 387.67,327.01127 C387.17,322.93127 382,326.42127 382,326.42127 C379.67,328.24127 380.33,325.27127 380.33,325.27127 C381,323.10127 380.33,322.27127 380.33,322.27127 C380.17,319.10127 371.83,326.33127 371.83,326.33127 C369.5,327.06127 371.02,323.33127 371.02,323.33127" id="Path" fill="#2B9652"></path>
            <path d="M356.12,297.12127 C356.12,297.12127 356.67,287.79127 359,288.12127 C359,288.12127 360.83,289.12127 361.5,286.45127 C361.5,286.45127 363,273.00127 366.17,278.14127 C366.17,278.14127 367.5,279.65127 368.5,276.97127 C368.5,276.97127 374.33,265.45127 375.67,268.97127 C375.981939,269.430338 376.489183,269.718735 377.043206,269.752016 C377.597229,269.785296 378.135349,269.559695 378.5,269.14127 C378.5,269.14127 382,266.64127 383,269.14127 C383,269.14127 384.17,270.31127 383,272.31127 C383,272.31127 381,274.64127 383.52,274.64127 C383.52,274.64127 387.17,275.81127 382.33,281.47127 C382.33,281.47127 380.17,283.64127 378,283.64127 C378,283.64127 375.5,285.14127 377.67,286.64127 C377.67,286.64127 380.33,288.47127 377.33,290.31127 C377.33,290.31127 375.45,291.81127 370.48,292.47127 C369.882088,292.483768 369.328472,292.789208 368.999045,293.28834 C368.669618,293.787472 368.606425,294.416591 368.83,294.97127 C368.83,294.97127 370.67,298.14127 366.5,300.31127 C366.5,300.31127 363.17,301.31127 361.67,301.81127 C361.67,301.81127 358.2,306.62127 355.67,307.63127" id="Path" fill="#4BB559"></path>
            <path d="M343.24,233.79127 C343.24,233.79127 336.82,223.12127 334.49,223.12127 C334.49,223.12127 332.99,223.55127 332.66,221.25127 C332.66,221.25127 330.16,210.95127 325.49,215.45127 C325.211479,216.073134 324.635517,216.510411 323.961684,216.611587 C323.287851,216.712763 322.608868,216.463916 322.16,215.95127 C322.16,215.95127 317.99,212.29127 317.49,215.29127 C317.49,215.29127 316.82,216.68127 318.49,220.48127 C318.49,220.48127 319.66,221.95127 318.99,222.79127 C318.99,222.79127 316.99,223.29127 319.49,225.62127 C319.49,225.62127 320.82,227.95127 324.66,228.79127 C324.66,228.79127 327.49,229.95127 326.32,231.12127 C326.32,231.12127 323.66,233.62127 326.82,234.95127 C326.82,234.95127 330.16,235.79127 332.32,236.12127 C332.32,236.12127 334.82,236.62127 333.99,238.29127 C333.99,238.29127 331.82,242.12127 335.16,242.45127 C335.16,242.45127 339.69,241.62127 346,247.29127" id="Path" fill="#4BB559"></path>
            <path d="M327.83,255.29127 C325.22,252.74127 325,255.95127 325,255.95127 C324.33,256.45127 323,254.95127 323,254.95127 C318.5,251.45127 320.29,256.62127 320.29,256.62127 C321.07,258.45127 320.29,259.12127 320.29,259.12127 C317.29,260.45127 322.17,264.79127 322.17,264.79127 C322.993017,265.653262 323.414216,266.82245 323.33,268.01127 C323,269.90127 326.65,270.79127 326.65,270.79127 C327.561491,271.075214 328.083559,272.030864 327.83,272.95127 C327.5,275.45127 334.67,275.62127 334.67,275.62127 C335.83,276.12127 336.17,278.14127 336.17,278.14127 C335.83,280.00127 342.5,280.79127 342.5,280.79127 C346.67,281.45127 351.17,285.62127 351.17,285.62127 L352.17,280.89127 L333.17,258.29127 L327.87,255.29127" id="Path" fill="#2B9652"></path>
            <path d="M327.35,325.32127 L329.9,326.32127 L335.31,344.73127 L336.38,358.26127 L336.38,364.76127 L332.12,368.35127 C332.12,368.35127 330.75,361.35127 328.5,359.63127 C328.5,359.63127 323.32,356.63127 326.75,355.26127 C326.75,355.26127 328.33,354.26127 326.23,353.26127 C326.23,353.26127 316.63,348.51127 320.5,346.51127 C320.5,346.51127 323.25,345.51127 320.88,343.76127 C320.88,343.76127 313.25,340.26127 316.75,338.38127 C317.270622,338.181269 317.633224,337.70387 317.686201,337.148675 C317.739178,336.59348 317.473404,336.056121 317,335.76127 C317,335.76127 312.13,332.51127 315.13,331.01127 C315.13,331.01127 317.63,330.38127 316.63,328.13127 C316.63,328.13127 313.63,322.51127 318.5,322.76127 C318.5,322.76127 320.13,323.01127 321.38,325.38127 C321.695768,326.042857 322.404056,326.423309 323.13,326.32127 C323.13,326.32127 326.81,324.15127 327.35,325.32127" id="Path" fill="#2B9652"></path>
            <path d="M350.55,269.05127 C350.55,269.05127 348.83,264.45127 347.17,264.29127 C346.427768,263.602081 346.007234,262.634129 346.01,261.62127 C346.01,261.62127 345.5,255.45127 342.33,255.12127 C342.33,255.12127 341,254.95127 340.5,250.79127 C340.5,250.79127 340,244.95127 336.5,247.29127 C336.5,247.29127 335.5,249.02127 333.17,246.74127 C333.17,246.74127 329.45,243.12127 328.89,246.12127 C328.89,246.12127 328.83,249.29127 327.83,250.29127 C327.83,250.29127 325.17,251.95127 327.83,255.29127 C327.83,255.29127 334,260.95127 333.17,261.62127 C333.17,261.62127 333.05,262.45127 331.69,262.45127 C331.69,262.45127 328.5,263.79127 332.83,266.12127 C332.83,266.12127 339.75,268.79127 339.54,270.12127 C339.361578,270.708556 338.823734,271.11295 338.21,271.12127 C338.21,271.12127 334.41,273.12127 339.54,276.12127 L351.17,282.94127" id="Path" fill="#4BB559"></path>
            <path d="M350.63,315.94127 C350.63,315.94127 349.63,309.12127 348.33,309.62127 C348.33,309.62127 346.83,311.05127 346.83,309.62127 C346.83,309.62127 348.5,300.98127 346.83,301.48127 C346.83,301.48127 345.5,301.32127 345.5,298.82127 C345.5,298.82127 346,290.82127 342.67,291.15127 C342.67,291.15127 340.67,291.86127 338.91,287.84127 C338.91,287.84127 337.17,280.78127 334.5,282.97127 C334.5,282.97127 332.67,286.82127 330.17,284.15127 C330.17,284.15127 324.96,278.15127 326.65,285.65127 C326.65,285.65127 328.29,290.82127 326.65,290.65127 C326.65,290.65127 324.13,291.98127 326.65,294.65127 C326.65,294.65127 331.65,297.65127 331.5,298.82127 C331.5,298.82127 330.83,299.98127 329.83,299.98127 C329.83,299.98127 327.17,301.65127 332.17,303.82127 C332.17,303.82127 339.47,306.82127 337.82,307.64127 C337.82,307.64127 334,309.64127 336.5,311.82127 C341.919896,315.213016 346.024756,320.347618 348.14,326.38127" id="Path" fill="#2B9652"></path>
            <path d="M348.24,344.76127 C348.24,344.76127 370.5,330.62127 368.83,328.62127 C368.83,328.62127 369,326.95127 366,327.62127 C366,327.62127 363.5,326.45127 367.17,325.45127 C367.17,325.45127 375.08,321.45127 375,319.45127 C375,319.45127 375.67,317.95127 372.5,318.45127 C372.5,318.45127 371.17,317.45127 373.5,316.62127 C373.5,316.62127 381.33,313.29127 378.5,310.45127 C378.5,310.45127 378,309.12127 375.83,310.45127 C375.83,310.45127 373.17,310.26127 375,307.61127 C375,307.61127 377.67,302.08127 373,304.10127 C373,304.10127 371.5,304.26127 369.17,307.61127 C369.17,307.61127 368.17,310.12127 366.33,310.12127 C366.33,310.12127 363.83,307.45127 362.5,311.12127 C362.5,311.12127 361.83,317.45127 359.83,317.79127 C359.83,317.79127 356.9,316.12127 356.12,319.12127 C355.265535,322.168407 354.72275,325.294447 354.5,328.45127 C354.5,328.45127 353.27,330.14127 352.88,327.80127" id="Path" fill="#4BB559"></path>
            <path d="M333.97,366.17127 C333.97,366.17127 332.63,359.17127 331.88,357.66127 C331.88,357.66127 328.63,352.04127 330.5,351.54127 C330.5,351.54127 330.29,351.04127 331.77,351.54127 C331.77,351.54127 332.92,352.91127 331.77,349.91127 C331.77,349.91127 325.63,338.04127 327.25,337.54127 C327.25,337.54127 327.63,336.54127 329.63,337.54127 C329.63,337.54127 331.23,338.29127 330.3,336.04127 C330.3,336.04127 324.75,329.29127 327.75,329.54127 C327.75,329.54127 329.5,329.54127 329.13,328.79127 C329.13,328.79127 324.6,320.91127 326.86,320.91127 C326.86,320.91127 327.38,320.54127 329.13,320.91127 C329.13,320.91127 331,321.66127 330.63,319.04127 C330.63,319.04127 331.25,311.91127 334.63,317.41127 C334.63,317.41127 336,319.66127 337.25,319.29127 C337.25,319.29127 341.88,315.68127 341,321.48127 C341,321.48127 339.6,326.54127 341.11,326.35127 C341.11,326.35127 344.75,324.29127 343.88,328.29127 C343.88,328.29127 340.75,336.41127 342,336.66127 C342,336.66127 345.52,335.79127 344,338.41127 C343.199855,340.425756 342.194562,342.352568 341,344.16127 C341,344.16127 339.5,347.55127 343.25,347.29127" id="Path" fill="#4BB559"></path>
            <path d="M308.94,403.18127 C311.63,402.06127 319.24,402.52127 319.24,402.52127 C321.62,402.89127 320.99,401.00127 320.99,401.00127 C320.62,399.49127 326.22,400.89127 326.22,400.89127 C329.32,401.52127 328.74,399.32127 328.74,399.32127 C328.49,397.38127 329.89,397.52127 329.89,397.52127 C331.53,397.02127 336.74,399.27127 336.74,399.27127 C340.74,399.77127 339.62,396.77127 339.62,396.77127 C338.87,394.77127 345.62,395.39127 345.62,395.39127 C349.24,395.52127 348.23,390.89127 348.23,390.89127 C348.23,389.02127 352.61,389.27127 352.61,389.27127 C357.22,388.89127 355.61,385.42127 355.61,385.42127 C355.61,384.07127 357.23,383.02127 357.23,383.02127 C359.73,379.89127 355.23,380.31127 355.23,380.31127 C354.23,380.36127 354.23,378.52127 354.23,378.52127 C353.61,375.02127 348.23,380.07127 348.23,380.07127 C346.97,381.24127 347.49,377.02127 347.49,377.02127 L338.49,385.52127 L328.41,391.18127 L318.66,394.43127 L314.92,395.52127 L308.94,403.18127 Z" id="Path" fill="#2B9652"></path>
            <path d="M343.87,377.83127 L347.5,377.04127 L343.87,383.29127 L326.31,393.79127 L314.5,396.52127 L319.25,393.03127 C319.25,393.03127 325.13,385.89127 325.63,388.64127 C325.63,388.64127 326.13,391.02127 327.5,389.14127 C327.5,389.14127 334.75,377.52127 335.88,381.14127 C335.88,381.14127 336.88,385.39127 338.63,383.64127 C338.63,383.64127 342.63,377.81127 343.87,377.81127" id="Path" fill="#2B9652"></path>
            <path d="M337.79,367.88127 C337.79,367.88127 342.53,359.88127 344.39,362.41127 C344.39,362.41127 344.88,365.04127 345.39,364.79127 C345.39,364.79127 352.01,355.16127 354.39,357.41127 C354.773456,357.979278 354.773456,358.723263 354.39,359.29127 C354.39,359.29127 354.49,360.79127 356.13,358.79127 C356.13,358.79127 363.89,349.79127 364.51,352.91127 C364.51,352.91127 364.39,355.41127 365.39,355.41127 C365.39,355.41127 371.51,351.16127 372.89,354.29127 C372.89,354.29127 373.89,356.16127 371.14,357.79127 C371.14,357.79127 368.76,359.54127 369.76,361.04127 C369.76,361.04127 371.89,364.41127 367.76,366.04127 C367.76,366.04127 360.14,366.84127 360.01,368.38127 C359.864578,368.872065 360.070411,369.398996 360.51,369.66127 C360.51,369.66127 363.01,371.79127 356.89,372.79127 C356.89,372.79127 348.37,372.79127 348.25,373.79127 C348.081316,374.069304 348.040594,374.406534 348.138248,374.716729 C348.235902,375.026924 348.462464,375.28001 348.76,375.41127 C348.76,375.41127 351.01,378.29127 342.76,377.79127 C342.76,377.79127 331.76,377.65127 329.91,380.09127" id="Path" fill="#4BB559"></path>
            <path d="M321.88,384.41127 C321.73,382.06127 325.59,377.30127 325.59,377.30127 C327.92,374.82127 323.88,374.54127 323.88,374.54127 C323.13,374.16127 325.42,367.04127 325.42,367.04127 C326.22,365.04127 323.88,366.17127 323.88,366.17127 C322.75,365.80127 325.38,360.29127 325.38,360.29127 C325.88,356.54127 322.13,358.41127 322.13,358.41127 C321.13,358.91127 321,355.91127 321,355.91127 C320.63,351.91127 319.25,351.16127 319.25,351.16127 C313.5,348.54127 314.15,356.79127 314.15,356.79127 C314.67,358.54127 312.38,357.91127 312.38,357.91127 C309.63,357.29127 312.63,364.79127 312.63,364.79127 C312.75,366.54127 310.2,366.17127 310.2,366.17127 C306.2,366.17127 312.68,374.29127 312.68,374.29127 C314.11,376.66127 311.44,376.29127 311.44,376.29127 C308.51,376.41127 312.13,382.04127 312.13,382.04127 C313.38,385.79127 312.13,384.66127 312.13,384.66127 C309,383.54127 310.63,386.41127 310.63,386.41127 C311.88,388.54127 310.63,394.79127 310.63,394.79127 L310.13,396.54127" id="Path" fill="#4BB559"></path>
            <path d="M282.11,418.58127 C282.11,418.58127 285,409.79127 284.63,404.58127 C284.63,404.58127 283.88,397.08127 286.88,398.95127 C286.88,398.95127 288.5,400.85127 288.5,398.65127 C288.5,398.65127 287.38,388.48127 291,390.28127 C291,390.28127 292.75,392.05127 292.88,390.07127 C292.88,390.07127 292.13,381.70127 294,382.20127 C294,382.20127 295.25,382.91127 295.63,382.20127 C295.63,382.20127 296,374.60127 298.38,375.20127 C298.38,375.20127 299.5,376.00127 300.25,375.20127 C300.25,375.20127 301.75,369.20127 303.75,370.61127 C303.75,370.61127 305.88,371.11127 305.63,374.23127 C305.63,374.23127 305,378.23127 307,378.73127 C307,378.73127 311,377.73127 308.94,382.11127 C308.94,382.11127 305.25,388.48127 306.63,389.11127 C306.63,389.11127 310.25,388.98127 307.88,391.73127 C307.88,391.73127 304.63,394.86127 303.75,395.61127 C303.377252,396.252903 303.203244,396.990699 303.25,397.73127 C303.25,397.73127 306.02,398.30127 294.58,410.61127" id="Path" fill="#4BB559"></path>
            <path d="M241.24,438.43127 C241.24,438.43127 248.91,427.79127 249.03,424.54127 C249.03,424.54127 249.41,419.91127 252.03,422.91127 C252.03,422.91127 254.03,425.26127 254.28,421.91127 C254.28,421.91127 253.66,407.55127 258.66,409.67127 C258.66,409.67127 261.78,412.92127 262.41,410.67127 C262.41,410.67127 262.16,400.67127 265.41,401.92127 C265.41,401.92127 267.66,404.05127 267.91,402.67127 C267.91,402.67127 268.78,394.31127 271.41,396.55127 C271.41,396.55127 273.53,398.67127 274.53,397.42127 C274.53,397.42127 275.16,393.30127 276.03,392.42127 C276.689572,392.042833 277.500428,392.042833 278.16,392.42127 C278.91856,392.272919 279.511648,391.67983 279.66,390.92127 C279.66,390.92127 281.28,387.67127 283.03,391.55127 C283.03,391.55127 283.87,392.55127 282.14,396.05127 C282.14,396.05127 280.87,397.67127 282.14,397.92127 C282.14,397.92127 286.49,399.05127 282.14,402.30127 C282.14,402.30127 279.14,405.05127 280.53,405.67127 C280.53,405.67127 284.41,406.80127 281.41,409.30127 C281.41,409.30127 275.28,411.80127 275.91,412.80127 C275.91,412.80127 279.53,414.30127 276.03,416.17127 C276.03,416.17127 269.28,418.42127 270.41,419.80127 C270.41,419.80127 272.53,421.92127 268.16,422.80127 C268.16,422.80127 259.91,424.17127 260.41,425.30127 C260.41,425.30127 262.78,425.17127 261.53,427.05127 C261.53,427.05127 257.53,432.25127 256.11,432.88127" id="Path" fill="#4BB559"></path>
            <path d="M281.44,423.23127 C283.96,421.75127 294.5,430.41127 294.5,430.41127 C296.38,432.54127 298.13,428.66127 298.13,428.66127 C299.63,427.54127 303.13,433.41127 303.13,433.41127 C304.63,435.29127 305.5,432.04127 305.5,432.04127 C306.63,430.54127 308.88,434.16127 308.88,434.16127 C312.26,438.16127 313.75,435.79127 313.75,435.79127 C313.75,434.41127 314.63,434.29127 314.63,434.29127 C315.13,433.79127 322.63,438.43127 322.63,438.43127 C325.5,439.19127 324.63,434.04127 324.63,434.04127 C326.711374,434.169046 328.798626,434.169046 330.88,434.04127 C334.5,432.66127 331.57,429.66127 331.57,429.66127 C330.64,429.16127 331.57,426.91127 331.57,426.91127 C331.89,423.66127 323.64,425.16127 323.64,425.16127 C322.15,425.04127 324.14,422.79127 324.14,422.79127 C325.89,420.91127 322.63,420.32127 322.63,420.32127 L314.01,418.58127 L295.83,419.12127 L288.34,418.20127 L281.44,423.23127 Z" id="Path" fill="#2B9652"></path>
            <path d="M299.76,410.80127 C299.76,410.80127 304.13,407.16127 304.13,409.54127 C304.13,409.54127 304.13,411.62127 306.13,409.76127 C306.13,409.76127 315.63,401.76127 316.63,405.76127 C316.63,405.76127 316.32,408.51127 317.63,408.51127 C317.63,408.51127 326.91,402.39127 328.16,404.63127 C328.16,404.63127 329.03,404.63127 329.41,407.45127 C329.41,407.45127 329.16,408.63127 331.59,408.01127 C331.59,408.01127 338.28,407.01127 337.91,410.13127 C337.91,410.13127 338.91,412.63127 332.78,414.51127 C332.78,414.51127 328.95,415.26127 329.93,416.63127 C329.93,416.63127 332.53,419.13127 328.41,420.13127 C328.41,420.13127 318.97,420.51127 317.63,420.13127 C317.63,420.13127 315.28,420.51127 316.53,421.51127 C316.53,421.51127 318.16,425.63127 313.16,423.88127 C313.16,423.88127 307.28,420.26127 307.16,421.76127 C307.16,421.76127 308.41,425.50127 305.16,424.31127 C305.16,424.31127 291.34,419.56127 285.81,420.54127" id="Path" fill="#4BB559"></path>
            <path d="M262.63,433.25127 C262.63,433.25127 269.5,430.60127 268,433.25127 C268,433.25127 267,435.41127 269,434.41127 C269,434.41127 281.51,427.91127 281.44,431.41127 C281.44,431.41127 281.76,431.79127 281.44,433.04127 C281.44,433.04127 280.08,436.19127 284.04,434.68127 C284.04,434.68127 296.25,428.80127 294.5,432.68127 C294.5,432.68127 292.97,437.74127 294.67,437.49127 C294.67,437.49127 299.88,436.25127 299.88,437.49127 C300.038669,438.229508 300.038669,438.993033 299.88,439.73127 C299.88,439.73127 299.63,440.85127 300.5,441.10127 C300.5,441.10127 303.38,444.35127 298.75,445.35127 C298.75,445.35127 294.5,445.73127 292.75,445.98127 C292.75,445.98127 290.88,445.85127 291.25,446.85127 C291.25,446.85127 291.75,451.60127 287,449.85127 C287,449.85127 280.63,445.35127 280.13,446.48127 C280.13,446.48127 279.13,446.60127 279.63,448.23127 C279.63,448.23127 279.5,451.98127 274.25,449.60127 C274.25,449.60127 267,442.98127 265.38,444.60127 C265.38,444.60127 263.75,449.85127 260.5,448.23127 C260.5,448.23127 251.57,439.46127 246.85,440.03127" id="Path" fill="#2B9652"></path>
            <ellipse id="Oval" fill="#F4B519" cx="339.53" cy="215.56127" rx="3.82" ry="7.97"></ellipse>
            <ellipse id="Oval" fill="#F4B519" transform="translate(346.002808, 253.558714) rotate(-18.190000) translate(-346.002808, -253.558714) " cx="346.002808" cy="253.558714" rx="3.82" ry="7.97"></ellipse>
            <ellipse id="Oval" fill="#F4B519" transform="translate(348.234005, 290.915569) rotate(-18.190000) translate(-348.234005, -290.915569) " cx="348.234005" cy="290.915569" rx="3.82" ry="7.97"></ellipse>
            <ellipse id="Oval" fill="#F4B519" transform="translate(359.665723, 280.896733) rotate(-68.940000) translate(-359.665723, -280.896733) " cx="359.665723" cy="280.896733" rx="7.97" ry="3.82"></ellipse>
            <ellipse id="Oval" fill="#F4B519" transform="translate(359.655424, 310.383480) rotate(-53.370000) translate(-359.655424, -310.383480) " cx="359.655424" cy="310.38348" rx="7.97" ry="3.82"></ellipse>
            <ellipse id="Oval" fill="#F4B519" transform="translate(348.243412, 354.771463) rotate(-36.850000) translate(-348.243412, -354.771463) " cx="348.243412" cy="354.771463" rx="7.97" ry="3.82"></ellipse>
            <ellipse id="Oval" fill="#F4B519" transform="translate(328.845540, 368.410785) rotate(-5.140000) translate(-328.845540, -368.410785) " cx="328.84554" cy="368.410785" rx="3.82" ry="7.97"></ellipse>
            <ellipse id="Oval" fill="#F4B519" transform="translate(308.303193, 394.350329) rotate(-66.860000) translate(-308.303193, -394.350329) " cx="308.303193" cy="394.350329" rx="7.97" ry="3.82"></ellipse>
            <ellipse id="Oval" fill="#F4B519" transform="translate(280.666830, 428.806576) rotate(-83.310000) translate(-280.666830, -428.806576) " cx="280.66683" cy="428.806576" rx="3.82" ry="7.97"></ellipse>
            <path d="M183.73,460.00127 C181.46,472.72127 174.5,464.29127 174.5,464.29127 C164.33,451.95127 158.62,451.29127 158.62,451.29127 C158.62,451.29127 160.08,445.67127 166.71,446.20127 C166.71,446.20127 176.83,451.48127 180.33,457.82127 C180.33,457.82127 183.85,463.59127 184.33,457.82127 C184.33,457.82127 185.02,453.28127 187.01,451.72127" id="Path" fill="#9B2C39"></path>
            <path d="M183.31,444.241349 C166.75,443.60127 168.17,427.92127 168.17,427.92127 C170.52,413.52127 191.67,413.52127 191.67,413.52127 C191.67,413.52127 198.13,416.98127 194.5,420.33127 C194.5,420.33127 177.5,419.43127 175.67,427.03127 C175.67,427.03127 173.53,432.03127 182.67,440.47127 C182.68,440.46127 183.86,444.26127 183.31,444.241349 Z" id="Path" fill="#9B2C39"></path>
            <path d="M206.13,459.62127 C208.41,472.33127 215.36,463.90127 215.36,463.90127 C225.53,451.57127 231.24,450.90127 231.24,450.90127 C231.24,450.90127 229.81,445.32127 223.15,445.82127 C223.15,445.82127 213.03,451.10127 209.53,457.43127 C209.53,457.43127 206.01,463.21127 205.53,457.43127 C205.53,457.43127 204.84,452.90127 202.85,451.33127" id="Path" fill="#9B2C39"></path>
            <path d="M195.36,414.91127 C195.36,414.91127 219.36,413.17127 221.7,427.53127 C221.7,427.53127 222.37,443.79127 205.81,444.24127 L203.75,442.10127 L207.18,440.10127 C216.33,431.66127 214.18,426.67127 214.18,426.67127 C212.34,419.07127 195.34,419.96127 195.34,419.96127 C195.34,419.96127 196.46,415.44127 195.34,414.96127" id="Path" fill="#9B2C39"></path>
            <path d="M205.64,448.12127 C221.12,448.63127 249.32,459.29127 249.32,459.29127 L250.17,464.12127 L204.89,450.45127 L200.63,447.60127 L205.64,448.12127 Z" id="Path" fill="#AA805C"></path>
            <path d="M126.33,473.45127 C126.33,473.45127 172.17,450.29127 194.5,451.29127 L194.22,447.04127 L183.73,448.12127 L139,459.29127 L126.33,473.45127 Z" id="Path" fill="#AA805C"></path>
            <path d="M261.99,473.45127 C261.99,473.45127 216.16,450.29127 193.82,451.29127 L194.22,447.04127 L206.13,448.04127 L247.13,459.93127 L261.99,473.45127 Z" id="Path" fill="#AA805C"></path>
            <path d="M193.82,445.12127 C158.64,442.45127 149,439.12127 149,439.12127 C-15.67,379.45127 49.67,223.12127 49.67,223.12127 C49.67,223.12127 49.67,220.95127 47.17,221.29127 C47.17,221.29127 -25,378.79127 147.67,442.45127 C147.67,442.45127 163.89,447.04127 193.82,449.04127" id="Path" fill="#AA805C"></path>
            <path d="M194.5,445.12127 C229.68,442.45127 239.32,439.12127 239.32,439.12127 C403.99,379.45127 338.66,223.12127 338.66,223.12127 C338.66,223.12127 338.66,220.95127 341.16,221.29127 C341.16,221.29127 413.32,378.79127 240.66,442.45127 C240.66,442.45127 224.43,447.04127 194.5,449.04127" id="Path" fill="#AA805C"></path>
            <path d="M182.68,448.12127 C167.2,448.63127 139,459.29127 139,459.29127 L138.38,462.35127 L178.5,451.26127 L182.68,448.12127 Z" id="Path" fill="#AA805C"></path>
            <path d="M261.99,473.45127 C261.99,473.45127 253.49,459.79127 249.32,459.29127 C245.15,458.79127 244.32,464.79127 261.99,473.45127 Z" id="Path" fill="#8E654B"></path>
            <path d="M126.33,473.45127 C126.33,473.45127 134.83,459.79127 139,459.29127 C143.17,458.79127 144,464.79127 126.33,473.45127 Z" id="Path" fill="#8E654B"></path>
            <path d="M130.17,493.79127 C130.17,493.79127 139,488.95127 148,489.45127 C151.364857,490.031446 154.798696,488.908053 157.17,486.45127 C157.17,486.45127 163.85,480.79127 160.84,474.12127 C160.84,474.12127 155.5,465.12127 157.33,456.12127 C157.33,456.12127 158.33,445.04127 166.71,446.12127 C166.71,446.12127 146.71,445.40127 147.33,458.24127 C147.33,458.24127 148.5,472.40127 151.5,479.24127 C151.5,479.24127 147.83,481.57127 137.67,473.40127 C137.67,473.40127 136.33,478.57127 139,482.57127 C139,482.62127 131.67,488.79127 130.17,493.79127 Z" id="Path" fill="#BE3641"></path>
            <path d="M259.7,493.40127 C259.7,493.40127 250.86,488.57127 241.86,489.07127 C238.498537,489.646167 235.070106,488.523319 232.7,486.07127 C232.7,486.07127 226.01,480.40127 229.02,473.73127 C229.02,473.73127 234.36,464.73127 232.53,455.73127 C232.53,455.73127 231.53,444.65127 223.15,445.79127 C223.15,445.79127 243.15,445.07127 242.53,457.90127 C242.53,457.90127 241.36,472.07127 238.36,478.90127 C238.36,478.90127 242.03,481.23127 252.2,473.07127 C252.2,473.07127 253.53,478.23127 250.86,482.23127 C250.86,482.23127 258.24,488.40127 259.7,493.40127 Z" id="Path" fill="#BE3641"></path>
            <path d="M187.01,451.69127 C187.01,451.69127 178.17,444.79127 185.09,431.29127 C185.09,431.29127 189.33,425.08127 192.33,423.18127 C192.33,423.18127 198.85,417.90127 191.67,413.51127 C191.67,413.51127 206.33,417.42127 199.67,426.18127 C196.98017,429.717899 194.085198,433.093697 191,436.29127 C191,436.29127 185,441.46127 191.49,451.29127 C191.49,451.29127 192.67,466.44127 189,467.03127 L179,467.03127 C179,467.03127 182,466.40127 183.51,460.25127 C183.47,460.24127 185.14,452.34127 187.01,451.69127 Z" id="Path" fill="#BE3641"></path>
            <path d="M202.85,451.30127 C202.85,451.30127 211.69,444.40127 204.78,430.90127 C204.78,430.90127 200.53,424.69127 197.53,422.80127 C197.53,422.80127 191.86,429.23127 195.36,432.57127 C195.36,432.57127 204.87,441.08127 198.36,450.91127 C198.36,450.91127 197.19,466.05127 200.85,466.64127 C204.332096,467.141921 207.867904,467.141921 211.35,466.64127 C211.35,466.64127 208.4,466.84127 206.35,459.79127 C204.3,452.74127 205.13,452.84127 202.85,451.30127 Z" id="Path" fill="#BE3641"></path>
            <path d="M199.44,451.52127 C197.109614,453.694826 193.590447,453.9805 190.94,452.21127 C187.81,449.47127 188.54,443.90127 188.54,443.90127 C188.54,443.90127 197.25,442.41127 200.63,444.29127 C200.63,444.24127 202.29,448.84127 199.44,451.52127 Z" id="Path" fill="#BE3641"></path>
            <rect id="Rectangle" fill="#1B28CE" x="102.5" y="129.77127" width="183.5" height="31.37"></rect>
        </g>
    </g>
</svg>